<mxfile host="app.diagrams.net" modified="2023-11-10T08:51:17.142Z" agent="Mozilla/5.0 (X11; Ubuntu; Linux x86_64; rv:109.0) Gecko/20100101 Firefox/119.0" etag="vLMAko-6bu9lfYeqlzH-" version="22.1.0" type="github">
  <diagram name="Page-1" id="xbARzoUtzpyNpIfK7Yrq">
    <mxGraphModel dx="2210" dy="915" grid="1" gridSize="10" guides="1" tooltips="1" connect="1" arrows="1" fold="1" page="1" pageScale="1" pageWidth="850" pageHeight="1100" math="0" shadow="0">
      <root>
        <mxCell id="0" />
        <mxCell id="1" parent="0" />
        <mxCell id="GSkxGboEBwmtGx_dDI9--1" value="" style="rounded=0;whiteSpace=wrap;html=1;strokeWidth=3;" vertex="1" parent="1">
          <mxGeometry x="160" y="240" width="480" height="280" as="geometry" />
        </mxCell>
        <mxCell id="GSkxGboEBwmtGx_dDI9--2" value="" style="endArrow=classic;html=1;rounded=0;strokeWidth=5;" edge="1" parent="1">
          <mxGeometry width="50" height="50" relative="1" as="geometry">
            <mxPoint y="320" as="sourcePoint" />
            <mxPoint x="160" y="320" as="targetPoint" />
          </mxGeometry>
        </mxCell>
        <mxCell id="GSkxGboEBwmtGx_dDI9--3" value="" style="endArrow=classic;html=1;rounded=0;strokeWidth=5;" edge="1" parent="1">
          <mxGeometry width="50" height="50" relative="1" as="geometry">
            <mxPoint x="640" y="440" as="sourcePoint" />
            <mxPoint x="800" y="440" as="targetPoint" />
          </mxGeometry>
        </mxCell>
        <mxCell id="GSkxGboEBwmtGx_dDI9--4" value="" style="endArrow=classic;html=1;rounded=0;strokeWidth=5;" edge="1" parent="1">
          <mxGeometry width="50" height="50" relative="1" as="geometry">
            <mxPoint x="160" y="440" as="sourcePoint" />
            <mxPoint y="440" as="targetPoint" />
          </mxGeometry>
        </mxCell>
        <mxCell id="GSkxGboEBwmtGx_dDI9--5" value="" style="endArrow=classic;html=1;rounded=0;strokeWidth=5;" edge="1" parent="1">
          <mxGeometry width="50" height="50" relative="1" as="geometry">
            <mxPoint x="800" y="320" as="sourcePoint" />
            <mxPoint x="640" y="320" as="targetPoint" />
          </mxGeometry>
        </mxCell>
        <mxCell id="GSkxGboEBwmtGx_dDI9--6" value="&lt;font style=&quot;font-size: 60px;&quot;&gt;X&amp;nbsp;&amp;nbsp;&amp;nbsp; Y&amp;nbsp; =&amp;nbsp; A&amp;nbsp;&amp;nbsp;&amp;nbsp; B&lt;br&gt;&lt;/font&gt;" style="text;strokeColor=none;align=center;fillColor=none;html=1;verticalAlign=middle;whiteSpace=wrap;rounded=0;" vertex="1" parent="1">
          <mxGeometry x="175" y="365" width="450" height="30" as="geometry" />
        </mxCell>
        <mxCell id="GSkxGboEBwmtGx_dDI9--7" value="" style="shape=orEllipse;perimeter=ellipsePerimeter;whiteSpace=wrap;html=1;backgroundOutline=1;strokeWidth=2;" vertex="1" parent="1">
          <mxGeometry x="260" y="360" width="30" height="30" as="geometry" />
        </mxCell>
        <mxCell id="GSkxGboEBwmtGx_dDI9--8" value="" style="ellipse;whiteSpace=wrap;html=1;aspect=fixed;" vertex="1" parent="1">
          <mxGeometry x="500" y="365" as="geometry" />
        </mxCell>
        <mxCell id="GSkxGboEBwmtGx_dDI9--9" value="" style="ellipse;whiteSpace=wrap;html=1;aspect=fixed;fillColor=#000000;" vertex="1" parent="1">
          <mxGeometry x="510" y="365" width="20" height="20" as="geometry" />
        </mxCell>
        <mxCell id="GSkxGboEBwmtGx_dDI9--12" value="&lt;font style=&quot;font-size: 60px;&quot;&gt;A&lt;/font&gt;" style="text;strokeColor=none;align=center;fillColor=none;html=1;verticalAlign=middle;whiteSpace=wrap;rounded=0;" vertex="1" parent="1">
          <mxGeometry x="-60" y="310" width="60" height="30" as="geometry" />
        </mxCell>
        <mxCell id="GSkxGboEBwmtGx_dDI9--13" value="&lt;font style=&quot;font-size: 60px;&quot;&gt;B&lt;/font&gt;" style="text;strokeColor=none;align=center;fillColor=none;html=1;verticalAlign=middle;whiteSpace=wrap;rounded=0;" vertex="1" parent="1">
          <mxGeometry x="800" y="310" width="60" height="30" as="geometry" />
        </mxCell>
        <mxCell id="GSkxGboEBwmtGx_dDI9--14" value="&lt;font style=&quot;font-size: 60px;&quot;&gt;Y&lt;/font&gt;" style="text;strokeColor=none;align=center;fillColor=none;html=1;verticalAlign=middle;whiteSpace=wrap;rounded=0;" vertex="1" parent="1">
          <mxGeometry x="800" y="420" width="60" height="40" as="geometry" />
        </mxCell>
        <mxCell id="GSkxGboEBwmtGx_dDI9--15" value="&lt;font style=&quot;font-size: 60px;&quot;&gt;X&lt;/font&gt;" style="text;strokeColor=none;align=center;fillColor=none;html=1;verticalAlign=middle;whiteSpace=wrap;rounded=0;" vertex="1" parent="1">
          <mxGeometry x="-60" y="410" width="60" height="60" as="geometry" />
        </mxCell>
      </root>
    </mxGraphModel>
  </diagram>
</mxfile>
